#!OML:ASF F:\VICON\USERDATA\INSTALL\rory3\rory3.ASF
:FULLY-SPECIFIED
:DEGREES
1758
root 7.08246 18.6256 -2.5216 20.792 -45.2031 -12.5154
lowerback 14.6071 4.3291 -6.53349
upperback 6.22488 4.37765 -5.41302
thorax -1.6165 2.02917 -2.71481
lowerneck -7.45162 7.96197 -2.53732
upperneck 24.8494 9.99271 5.09533
head 8.53139 4.8232 3.02277
rclavicle 3.49861e-014 -7.95139e-015
rhumerus -3.71374 30.7001 -79.3073
rradius 122.732
rwrist -38.7024
rhand -34.6433 0.518932
rfingers 7.12502
rthumb -7.80053 -29.3172
lclavicle 3.49861e-014 -7.95139e-015
lhumerus -11.8954 -20.0609 78.6577
lradius 55.4288
lwrist 4.75091
lhand -45.8876 41.838
lfingers 7.12502
lthumb -18.6376 70.9651
rfemur -21.2318 17.4479 18.2264
rtibia 32.4058
rfoot -15.952 5.38382
rtoes -10.0114
lfemur -33.7199 -2.8965 -2.76398
ltibia 33.6334
lfoot -8.7763 7.11668
ltoes 2.5416
1759
root 7.06058 18.5869 -2.60465 21.3904 -44.4748 -13.3459
lowerback 14.4996 4.31406 -5.65996
upperback 6.28565 4.51252 -5.11408
thorax -1.4596 2.10973 -2.89136
lowerneck -7.39579 7.83127 -2.71955
upperneck 24.7207 9.8135 5.23911
head 8.46508 4.74343 3.07593
rclavicle 3.02153e-014 9.22361e-014
rhumerus -3.84173 31.4006 -79.4484
rradius 121.786
rwrist -38.6213
rhand -34.9131 1.02972
rfingers 7.12502
rthumb -8.06086 -28.7966
lclavicle 3.02153e-014 9.22361e-014
lhumerus -11.0518 -20.1222 78.3144
lradius 53.3289
lwrist 4.78872
lhand -46.3842 41.4174
lfingers 7.12502
lthumb -19.1152 70.4981
rfemur -21.2505 17.8839 19.5133
rtibia 32.6754
rfoot -16.3068 5.55939
rtoes -8.52943
lfemur -34.27 -2.25413 -1.82814
ltibia 33.8807
lfoot -8.20713 6.29874
ltoes 1.02286
1760
root 7.0435 18.5612 -2.68038 20.7218 -44.3422 -12.5682
lowerback 14.5593 4.40983 -6.0744
upperback 6.39893 4.57701 -5.16749
thorax -1.39501 2.13107 -2.72968
lowerneck -7.60287 7.7558 -2.85359
upperneck 24.8206 9.71293 5.36171
head 8.52634 4.69753 3.14483
rclavicle -1.74931e-014 -1.74931e-014
rhumerus -3.84098 32.1525 -79.448
rradius 120.919
rwrist -38.6452
rhand -35.1847 1.40698
rfingers 7.12502
rthumb -8.32298 -28.4091
lclavicle -1.74931e-014 -1.74931e-014
lhumerus -10.1622 -19.8702 77.9655
lradius 51.4588
lwrist 5.34289
lhand -46.4303 40.3272
lfingers 7.12502
lthumb -19.1595 69.4034
rfemur -21.2618 18.2803 19.3304
rtibia 33.0748
rfoot -16.6074 5.58072
rtoes -6.35449
lfemur -34.5101 -2.36647 -2.20245
ltibia 33.9966
lfoot -7.97687 6.19957
ltoes -0.381102
1761
root 7.02221 18.5396 -2.74356 19.7631 -44.4381 -11.7517
lowerback 14.747 4.57017 -6.46141
upperback 6.5605 4.70851 -5.34902
thorax -1.33353 2.18442 -2.73804
lowerneck -7.68023 7.66944 -2.92728
upperneck 24.8403 9.57537 5.51856
head 8.53965 4.64409 3.20214
rclavicle -4.29375e-014 -1.74931e-014
rhumerus -3.77226 32.7695 -79.5738
rradius 120.008
rwrist -38.6315
rhand -35.3987 1.48958
rfingers 7.12502
rthumb -8.52954 -28.3182
lclavicle -4.29375e-014 -1.74931e-014
lhumerus -9.35553 -19.8655 77.5477
lradius 49.8273
lwrist 6.16458
lhand -46.0583 40.5126
lfingers 7.12502
lthumb -18.8018 69.6239
rfemur -20.8873 18.817 19.1254
rtibia 33.3502
rfoot -16.881 4.97976
rtoes -4.22651
lfemur -34.3712 -2.62055 -2.66943
ltibia 34.168
lfoot -7.99356 6.29592
ltoes -0.0517219
1762
root 6.99888 18.5118 -2.81891 19.5472 -44.0554 -11.3276
lowerback 14.4704 4.54907 -6.44962
upperback 6.61336 4.71821 -5.42026
thorax -1.12318 2.18877 -2.79716
lowerneck -7.68737 7.62239 -2.81458
upperneck 24.8176 9.51406 5.43767
head 8.54749 4.61904 3.15272
rclavicle 2.54444e-014 2.22639e-014
rhumerus -3.48633 33.3252 -79.6734
rradius 118.968
rwrist -38.619
rhand -35.7206 1.78168
rfingers 7.12502
rthumb -8.84016 -28.0132
lclavicle 2.54444e-014 2.22639e-014
lhumerus -8.59422 -19.8811 77.2511
lradius 48.2829
lwrist 6.52724
lhand -44.5891 42.2531
lfingers 7.12502
lthumb -17.3882 71.4954
rfemur -21.0862 19.1658 19.2813
rtibia 33.7691
rfoot -17.2247 3.17283
rtoes -3.33142
lfemur -34.8171 -2.66722 -2.66707
ltibia 34.2236
lfoot -7.78961 6.03288
ltoes 1.51166
1763
root 6.97714 18.4806 -2.91545 19.2442 -43.4728 -10.8988
lowerback 14.4964 4.46765 -6.50396
upperback 6.65754 4.60666 -5.44679
thorax -1.09158 2.13286 -2.77751
lowerneck -7.69047 7.61816 -2.6544
upperneck 24.7258 9.52283 5.27978
head 8.53507 4.62451 3.07288
rclavicle 9.54166e-015 -4.6118e-014
rhumerus -3.06426 33.9483 -79.6833
rradius 118.015
rwrist -38.6063
rhand -36.2195 2.18664
rfingers 7.12502
rthumb -9.32159 -27.5873
lclavicle 9.54166e-015 -4.6118e-014
lhumerus -7.75191 -19.7813 77.0176
lradius 46.6549
lwrist 6.57647
lhand -43.8179 42.7634
lfingers 7.12502
lthumb -16.6459 72.0696
rfemur -21.188 19.3748 19.5709
rtibia 34.1079
rfoot -17.6475 0.805525
rtoes -3.38167
lfemur -35.2709 -2.53443 -2.64887
ltibia 34.2642
lfoot -7.38621 5.39309
ltoes 2.59963
1764
root 6.96007 18.4447 -3.0313 19.0953 -42.9682 -10.4168
lowerback 14.5231 4.39787 -6.74597
upperback 6.60438 4.47773 -5.5039
thorax -1.17387 2.06773 -2.68839
lowerneck -7.76215 7.62064 -2.6209
upperneck 24.6741 9.51913 5.3144
head 8.53051 4.63188 3.08029
rclavicle 7.95139e-015 4.29375e-014
rhumerus -2.83254 34.4914 -79.7728
rradius 117.37
rwrist -38.2669
rhand -36.2897 2.32898
rfingers 7.12502
rthumb -9.38938 -27.4419
lclavicle 7.95139e-015 4.29375e-014
lhumerus -6.93172 -19.619 76.8005
lradius 45.1378
lwrist 6.70792
lhand -44.2419 41.6234
lfingers 7.12502
lthumb -17.0541 70.8948
rfemur -21.6756 19.7489 19.6974
rtibia 34.4012
rfoot -18.1166 -1.20693
rtoes -3.83417
lfemur -36.007 -2.34697 -2.63229
ltibia 34.3054
lfoot -6.82686 4.9013
ltoes 2.52728
1765
root 6.93626 18.423 -3.11023 18.503 -42.9128 -10.1686
lowerback 14.7725 4.50644 -6.83321
upperback 6.74327 4.58068 -5.55908
thorax -1.15915 2.11302 -2.72912
lowerneck -7.85327 7.63731 -2.62019
upperneck 24.6948 9.53978 5.34842
head 8.55145 4.64604 3.09877
rclavicle -8.5875e-014 1.59028e-015
rhumerus -2.81268 34.9823 -79.8766
rradius 116.93
rwrist -37.6726
rhand -36.3049 2.4556
rfingers 7.12502
rthumb -9.404 -27.3146
lclavicle -8.5875e-014 1.59028e-015
lhumerus -6.18829 -19.4418 76.7102
lradius 43.8239
lwrist 6.9294
lhand -44.3363 40.5153
lfingers 7.12502
lthumb -17.1449 69.7788
rfemur -21.4516 20.4578 19.9741
rtibia 34.6908
rfoot -18.91 -2.17268
rtoes -4.06537
lfemur -35.7985 -2.63527 -2.52001
ltibia 34.3276
lfoot -6.73407 5.0348
ltoes 3.39567
1766
root 6.90853 18.406 -3.17819 17.9988 -42.821 -9.88981
lowerback 14.6831 4.55886 -6.8084
upperback 6.95171 4.66971 -5.67913
thorax -0.876775 2.15099 -2.86869
lowerneck -7.91091 7.68406 -2.65875
upperneck 24.6103 9.59744 5.43364
head 8.52315 4.6814 3.13673
rclavicle 3.33958e-014 2.38542e-014
rhumerus -2.59999 35.3221 -79.9891
rradius 116.6
rwrist -36.8779
rhand -36.4051 1.99274
rfingers 7.12502
rthumb -9.50073 -27.7731
lclavicle 3.33958e-014 2.38542e-014
lhumerus -5.37119 -19.2168 76.6689
lradius 42.6082
lwrist 7.07912
lhand -44.1045 39.6884
lfingers 7.12502
lthumb -16.9218 68.9712
rfemur -21.3286 21.0155 20.208
rtibia 35.0424
rfoot -19.8923 -2.84839
rtoes -4.95251
lfemur -35.6346 -3.05167 -2.41324
ltibia 34.3286
lfoot -6.71626 5.24194
ltoes 3.71202
